<?xml version="1.0" standalone="no"?>
<!DOCTYPE svg PUBLIC "-//W3C//DTD SVG 1.1//EN" "http://www.w3.org/Graphics/SVG/1.1/DTD/svg11.dtd">
<svg version="1.1" xmlns="http://www.w3.org/2000/svg" viewBox="0 0 103.58334050632416 59.05762714170666" width="103.58334050632416" height="59.05762714170666" filter="invert(93%) hue-rotate(180deg)"><!-- svg-source:excalidraw --><metadata></metadata><defs><style class="style-fonts">
      </style></defs><g stroke-linecap="round"><g transform="translate(11.145022472813729 49.49971320465954) rotate(0 40.924994559769324 -19.76235976826773)"><path d="M0.21 -0.44 C7.78 -3.18, 31.36 -8.74, 45.06 -15.25 C58.77 -21.76, 76.33 -35.63, 82.44 -39.5 M-1.15 -1.72 C6.38 -3.83, 30.71 -8.11, 44.57 -14.18 C58.42 -20.26, 75.76 -33.79, 81.98 -38.17" stroke="#40c057" stroke-width="4" fill="none"></path></g><g transform="translate(11.145022472813729 49.49971320465954) rotate(0 40.924994559769324 -19.76235976826773)"><path d="M69.32 -19.39 C71.78 -22.99, 74.4 -28.47, 81.98 -38.17 M69.32 -19.39 C73.99 -24.34, 76.83 -31.64, 81.98 -38.17" stroke="#40c057" stroke-width="4" fill="none"></path></g><g transform="translate(11.145022472813729 49.49971320465954) rotate(0 40.924994559769324 -19.76235976826773)"><path d="M60.21 -31.93 C65.23 -32.19, 70.28 -34.32, 81.98 -38.17 M60.21 -31.93 C67.62 -33.17, 73.21 -36.68, 81.98 -38.17" stroke="#40c057" stroke-width="4" fill="none"></path></g></g><mask></mask></svg>